<mxfile host="Electron" modified="2025-07-03T12:51:31.687Z" agent="Mozilla/5.0 (Windows NT 10.0; Win64; x64) AppleWebKit/537.36 (KHTML, like Gecko) draw.io/24.0.4 Chrome/120.0.6099.109 Electron/28.1.0 Safari/537.36" etag="SlSru8cF2eiNGHq2iofa" version="24.0.4" type="device">
  <diagram id="C5RBs43oDa-KdzZeNtuy" name="Page-1">
    <mxGraphModel dx="2320" dy="1102" grid="1" gridSize="10" guides="1" tooltips="1" connect="1" arrows="1" fold="1" page="1" pageScale="1" pageWidth="827" pageHeight="1169" math="0" shadow="0">
      <root>
        <mxCell id="WIyWlLk6GJQsqaUBKTNV-0" />
        <mxCell id="WIyWlLk6GJQsqaUBKTNV-1" parent="WIyWlLk6GJQsqaUBKTNV-0" />
        <mxCell id="DrqY0qf3_UpE_UGhZR60-7" style="edgeStyle=orthogonalEdgeStyle;rounded=0;orthogonalLoop=1;jettySize=auto;html=1;exitX=1;exitY=0.5;exitDx=0;exitDy=0;" parent="WIyWlLk6GJQsqaUBKTNV-1" source="DrqY0qf3_UpE_UGhZR60-4" target="DrqY0qf3_UpE_UGhZR60-6" edge="1">
          <mxGeometry relative="1" as="geometry" />
        </mxCell>
        <mxCell id="DrqY0qf3_UpE_UGhZR60-4" value="start" style="ellipse;whiteSpace=wrap;html=1;" parent="WIyWlLk6GJQsqaUBKTNV-1" vertex="1">
          <mxGeometry x="59" y="20" width="120" height="80" as="geometry" />
        </mxCell>
        <mxCell id="DrqY0qf3_UpE_UGhZR60-5" value="end" style="ellipse;whiteSpace=wrap;html=1;" parent="WIyWlLk6GJQsqaUBKTNV-1" vertex="1">
          <mxGeometry x="699" y="150" width="120" height="80" as="geometry" />
        </mxCell>
        <mxCell id="DrqY0qf3_UpE_UGhZR60-10" style="edgeStyle=orthogonalEdgeStyle;rounded=0;orthogonalLoop=1;jettySize=auto;html=1;exitX=1;exitY=0.5;exitDx=0;exitDy=0;entryX=0.5;entryY=0;entryDx=0;entryDy=0;" parent="WIyWlLk6GJQsqaUBKTNV-1" source="DrqY0qf3_UpE_UGhZR60-6" target="DrqY0qf3_UpE_UGhZR60-9" edge="1">
          <mxGeometry relative="1" as="geometry" />
        </mxCell>
        <mxCell id="DrqY0qf3_UpE_UGhZR60-6" value="recieve request" style="rounded=0;whiteSpace=wrap;html=1;" parent="WIyWlLk6GJQsqaUBKTNV-1" vertex="1">
          <mxGeometry x="199" y="30" width="120" height="60" as="geometry" />
        </mxCell>
        <mxCell id="DrqY0qf3_UpE_UGhZR60-13" value="yes" style="edgeStyle=orthogonalEdgeStyle;rounded=0;orthogonalLoop=1;jettySize=auto;html=1;exitX=1;exitY=0.5;exitDx=0;exitDy=0;entryX=0;entryY=0.5;entryDx=0;entryDy=0;" parent="WIyWlLk6GJQsqaUBKTNV-1" source="DrqY0qf3_UpE_UGhZR60-9" target="DrqY0qf3_UpE_UGhZR60-12" edge="1">
          <mxGeometry relative="1" as="geometry" />
        </mxCell>
        <mxCell id="DrqY0qf3_UpE_UGhZR60-19" value="no" style="edgeStyle=orthogonalEdgeStyle;rounded=0;orthogonalLoop=1;jettySize=auto;html=1;exitX=0;exitY=0.5;exitDx=0;exitDy=0;entryX=0.5;entryY=0;entryDx=0;entryDy=0;" parent="WIyWlLk6GJQsqaUBKTNV-1" source="DrqY0qf3_UpE_UGhZR60-9" target="DrqY0qf3_UpE_UGhZR60-16" edge="1">
          <mxGeometry relative="1" as="geometry">
            <Array as="points">
              <mxPoint x="369" y="100" />
              <mxPoint x="239" y="100" />
            </Array>
          </mxGeometry>
        </mxCell>
        <mxCell id="DrqY0qf3_UpE_UGhZR60-9" value="if request.user.is_authenticated&lt;div&gt;&lt;br&gt;&lt;/div&gt;" style="rhombus;whiteSpace=wrap;html=1;" parent="WIyWlLk6GJQsqaUBKTNV-1" vertex="1">
          <mxGeometry x="369" y="30" width="170" height="130" as="geometry" />
        </mxCell>
        <mxCell id="DrqY0qf3_UpE_UGhZR60-14" style="edgeStyle=orthogonalEdgeStyle;rounded=0;orthogonalLoop=1;jettySize=auto;html=1;exitX=1;exitY=0.5;exitDx=0;exitDy=0;entryX=0.5;entryY=0;entryDx=0;entryDy=0;" parent="WIyWlLk6GJQsqaUBKTNV-1" source="DrqY0qf3_UpE_UGhZR60-12" target="DrqY0qf3_UpE_UGhZR60-5" edge="1">
          <mxGeometry relative="1" as="geometry">
            <mxPoint x="729" y="90" as="targetPoint" />
          </mxGeometry>
        </mxCell>
        <mxCell id="DrqY0qf3_UpE_UGhZR60-12" value="redirect (&#39;home&#39;)" style="rounded=0;whiteSpace=wrap;html=1;" parent="WIyWlLk6GJQsqaUBKTNV-1" vertex="1">
          <mxGeometry x="579" y="60" width="120" height="60" as="geometry" />
        </mxCell>
        <mxCell id="DrqY0qf3_UpE_UGhZR60-21" value="yes" style="edgeStyle=orthogonalEdgeStyle;rounded=0;orthogonalLoop=1;jettySize=auto;html=1;entryX=0.5;entryY=0;entryDx=0;entryDy=0;exitX=0;exitY=0.5;exitDx=0;exitDy=0;" parent="WIyWlLk6GJQsqaUBKTNV-1" source="DrqY0qf3_UpE_UGhZR60-16" target="DrqY0qf3_UpE_UGhZR60-20" edge="1">
          <mxGeometry relative="1" as="geometry">
            <Array as="points">
              <mxPoint x="169" y="175" />
              <mxPoint x="169" y="200" />
              <mxPoint x="109" y="200" />
            </Array>
          </mxGeometry>
        </mxCell>
        <mxCell id="tftde-_Lvce57QczOa0r-6" value="no" style="edgeStyle=orthogonalEdgeStyle;rounded=0;orthogonalLoop=1;jettySize=auto;html=1;exitX=1;exitY=0.5;exitDx=0;exitDy=0;" edge="1" parent="WIyWlLk6GJQsqaUBKTNV-1" source="DrqY0qf3_UpE_UGhZR60-16" target="tftde-_Lvce57QczOa0r-7">
          <mxGeometry relative="1" as="geometry">
            <mxPoint x="320" y="190" as="targetPoint" />
          </mxGeometry>
        </mxCell>
        <mxCell id="DrqY0qf3_UpE_UGhZR60-16" value="if&amp;nbsp;&lt;div&gt;request.method&lt;div&gt;==&#39;POST&#39;&lt;/div&gt;&lt;/div&gt;" style="rhombus;whiteSpace=wrap;html=1;" parent="WIyWlLk6GJQsqaUBKTNV-1" vertex="1">
          <mxGeometry x="179" y="130" width="120" height="90" as="geometry" />
        </mxCell>
        <mxCell id="DrqY0qf3_UpE_UGhZR60-22" style="edgeStyle=orthogonalEdgeStyle;rounded=0;orthogonalLoop=1;jettySize=auto;html=1;exitX=0.5;exitY=1;exitDx=0;exitDy=0;" parent="WIyWlLk6GJQsqaUBKTNV-1" source="DrqY0qf3_UpE_UGhZR60-20" target="DrqY0qf3_UpE_UGhZR60-24" edge="1">
          <mxGeometry relative="1" as="geometry">
            <mxPoint x="329" y="370" as="targetPoint" />
          </mxGeometry>
        </mxCell>
        <mxCell id="DrqY0qf3_UpE_UGhZR60-20" value="email=request.POST.get(&#39;email&#39;)" style="rounded=0;whiteSpace=wrap;html=1;" parent="WIyWlLk6GJQsqaUBKTNV-1" vertex="1">
          <mxGeometry x="9" y="230" width="200" height="80" as="geometry" />
        </mxCell>
        <mxCell id="DrqY0qf3_UpE_UGhZR60-28" value="yes" style="edgeStyle=orthogonalEdgeStyle;rounded=0;orthogonalLoop=1;jettySize=auto;html=1;exitX=1;exitY=0.5;exitDx=0;exitDy=0;entryX=0.5;entryY=0;entryDx=0;entryDy=0;" parent="WIyWlLk6GJQsqaUBKTNV-1" source="DrqY0qf3_UpE_UGhZR60-24" target="DrqY0qf3_UpE_UGhZR60-27" edge="1">
          <mxGeometry relative="1" as="geometry" />
        </mxCell>
        <mxCell id="DrqY0qf3_UpE_UGhZR60-38" value="no" style="edgeStyle=orthogonalEdgeStyle;rounded=0;orthogonalLoop=1;jettySize=auto;html=1;exitX=0;exitY=0.5;exitDx=0;exitDy=0;entryX=0.5;entryY=0;entryDx=0;entryDy=0;" parent="WIyWlLk6GJQsqaUBKTNV-1" source="DrqY0qf3_UpE_UGhZR60-24" target="DrqY0qf3_UpE_UGhZR60-36" edge="1">
          <mxGeometry relative="1" as="geometry" />
        </mxCell>
        <mxCell id="DrqY0qf3_UpE_UGhZR60-24" value="if not email" style="rhombus;whiteSpace=wrap;html=1;" parent="WIyWlLk6GJQsqaUBKTNV-1" vertex="1">
          <mxGeometry x="333" y="330" width="80" height="80" as="geometry" />
        </mxCell>
        <mxCell id="DrqY0qf3_UpE_UGhZR60-29" style="edgeStyle=orthogonalEdgeStyle;rounded=0;orthogonalLoop=1;jettySize=auto;html=1;exitX=0.5;exitY=1;exitDx=0;exitDy=0;" parent="WIyWlLk6GJQsqaUBKTNV-1" source="DrqY0qf3_UpE_UGhZR60-27" target="DrqY0qf3_UpE_UGhZR60-30" edge="1">
          <mxGeometry relative="1" as="geometry">
            <mxPoint x="499" y="460" as="targetPoint" />
          </mxGeometry>
        </mxCell>
        <mxCell id="DrqY0qf3_UpE_UGhZR60-27" value="messages.error(request,&quot;Email is required&quot;)" style="rounded=0;whiteSpace=wrap;html=1;" parent="WIyWlLk6GJQsqaUBKTNV-1" vertex="1">
          <mxGeometry x="489" y="270" width="200" height="50" as="geometry" />
        </mxCell>
        <mxCell id="DrqY0qf3_UpE_UGhZR60-32" style="edgeStyle=orthogonalEdgeStyle;rounded=0;orthogonalLoop=1;jettySize=auto;html=1;exitX=1;exitY=0.5;exitDx=0;exitDy=0;entryX=0.5;entryY=1;entryDx=0;entryDy=0;" parent="WIyWlLk6GJQsqaUBKTNV-1" source="DrqY0qf3_UpE_UGhZR60-30" target="DrqY0qf3_UpE_UGhZR60-5" edge="1">
          <mxGeometry relative="1" as="geometry" />
        </mxCell>
        <mxCell id="DrqY0qf3_UpE_UGhZR60-30" value="render (request,&#39;accounts/register_email.html&#39;)" style="rounded=0;whiteSpace=wrap;html=1;" parent="WIyWlLk6GJQsqaUBKTNV-1" vertex="1">
          <mxGeometry x="489" y="460" width="230" height="90" as="geometry" />
        </mxCell>
        <mxCell id="DrqY0qf3_UpE_UGhZR60-42" value="yes" style="edgeStyle=orthogonalEdgeStyle;rounded=0;orthogonalLoop=1;jettySize=auto;html=1;" parent="WIyWlLk6GJQsqaUBKTNV-1" source="DrqY0qf3_UpE_UGhZR60-34" target="DrqY0qf3_UpE_UGhZR60-41" edge="1">
          <mxGeometry relative="1" as="geometry" />
        </mxCell>
        <mxCell id="DrqY0qf3_UpE_UGhZR60-44" value="no" style="edgeStyle=orthogonalEdgeStyle;rounded=0;orthogonalLoop=1;jettySize=auto;html=1;entryX=0.5;entryY=0;entryDx=0;entryDy=0;exitX=0;exitY=0.5;exitDx=0;exitDy=0;" parent="WIyWlLk6GJQsqaUBKTNV-1" source="DrqY0qf3_UpE_UGhZR60-34" target="DrqY0qf3_UpE_UGhZR60-43" edge="1">
          <mxGeometry relative="1" as="geometry" />
        </mxCell>
        <mxCell id="DrqY0qf3_UpE_UGhZR60-34" value="if E.exists()" style="rhombus;whiteSpace=wrap;html=1;" parent="WIyWlLk6GJQsqaUBKTNV-1" vertex="1">
          <mxGeometry x="369" y="550" width="80" height="80" as="geometry" />
        </mxCell>
        <mxCell id="DrqY0qf3_UpE_UGhZR60-39" style="edgeStyle=orthogonalEdgeStyle;rounded=0;orthogonalLoop=1;jettySize=auto;html=1;exitX=0.5;exitY=1;exitDx=0;exitDy=0;entryX=0.5;entryY=0;entryDx=0;entryDy=0;" parent="WIyWlLk6GJQsqaUBKTNV-1" source="DrqY0qf3_UpE_UGhZR60-36" target="DrqY0qf3_UpE_UGhZR60-34" edge="1">
          <mxGeometry relative="1" as="geometry" />
        </mxCell>
        <mxCell id="DrqY0qf3_UpE_UGhZR60-36" value="E=EmailVerification.objects.filter(email=email)" style="rounded=0;whiteSpace=wrap;html=1;" parent="WIyWlLk6GJQsqaUBKTNV-1" vertex="1">
          <mxGeometry x="179" y="440" width="250" height="50" as="geometry" />
        </mxCell>
        <mxCell id="DrqY0qf3_UpE_UGhZR60-37" style="edgeStyle=orthogonalEdgeStyle;rounded=0;orthogonalLoop=1;jettySize=auto;html=1;exitX=0.5;exitY=1;exitDx=0;exitDy=0;" parent="WIyWlLk6GJQsqaUBKTNV-1" source="DrqY0qf3_UpE_UGhZR60-36" target="DrqY0qf3_UpE_UGhZR60-36" edge="1">
          <mxGeometry relative="1" as="geometry" />
        </mxCell>
        <mxCell id="DrqY0qf3_UpE_UGhZR60-41" value="messages.warning(request,&#39;This email is already in use using it will cause the old account to be frozen&#39;)" style="whiteSpace=wrap;html=1;" parent="WIyWlLk6GJQsqaUBKTNV-1" vertex="1">
          <mxGeometry x="489" y="620" width="190" height="70" as="geometry" />
        </mxCell>
        <mxCell id="DrqY0qf3_UpE_UGhZR60-49" value="" style="edgeStyle=orthogonalEdgeStyle;rounded=0;orthogonalLoop=1;jettySize=auto;html=1;" parent="WIyWlLk6GJQsqaUBKTNV-1" source="DrqY0qf3_UpE_UGhZR60-43" target="DrqY0qf3_UpE_UGhZR60-48" edge="1">
          <mxGeometry relative="1" as="geometry" />
        </mxCell>
        <mxCell id="DrqY0qf3_UpE_UGhZR60-43" value="code=f&quot;{randbelow(1000000):06d}" style="whiteSpace=wrap;html=1;" parent="WIyWlLk6GJQsqaUBKTNV-1" vertex="1">
          <mxGeometry x="59" y="564.5" width="180" height="100" as="geometry" />
        </mxCell>
        <mxCell id="DrqY0qf3_UpE_UGhZR60-54" value="" style="edgeStyle=orthogonalEdgeStyle;rounded=0;orthogonalLoop=1;jettySize=auto;html=1;" parent="WIyWlLk6GJQsqaUBKTNV-1" source="DrqY0qf3_UpE_UGhZR60-48" target="DrqY0qf3_UpE_UGhZR60-53" edge="1">
          <mxGeometry relative="1" as="geometry" />
        </mxCell>
        <mxCell id="DrqY0qf3_UpE_UGhZR60-48" value="expires_at=timezone.now&lt;div&gt;+&lt;/div&gt;&lt;div&gt;timezone.timedelta(minutes=5)&lt;/div&gt;" style="whiteSpace=wrap;html=1;" parent="WIyWlLk6GJQsqaUBKTNV-1" vertex="1">
          <mxGeometry x="59" y="690" width="180" height="100" as="geometry" />
        </mxCell>
        <mxCell id="DrqY0qf3_UpE_UGhZR60-56" value="" style="edgeStyle=orthogonalEdgeStyle;rounded=0;orthogonalLoop=1;jettySize=auto;html=1;" parent="WIyWlLk6GJQsqaUBKTNV-1" source="DrqY0qf3_UpE_UGhZR60-53" target="DrqY0qf3_UpE_UGhZR60-55" edge="1">
          <mxGeometry relative="1" as="geometry" />
        </mxCell>
        <mxCell id="DrqY0qf3_UpE_UGhZR60-53" value="EmailVerification.objects.update_or_create(&lt;div&gt;email=email,&lt;div&gt;code=code,&lt;div&gt;expires_at=expires_at)&lt;/div&gt;&lt;/div&gt;&lt;/div&gt;" style="whiteSpace=wrap;html=1;" parent="WIyWlLk6GJQsqaUBKTNV-1" vertex="1">
          <mxGeometry x="34" y="810" width="230" height="100" as="geometry" />
        </mxCell>
        <mxCell id="DrqY0qf3_UpE_UGhZR60-71" style="edgeStyle=orthogonalEdgeStyle;rounded=0;orthogonalLoop=1;jettySize=auto;html=1;exitX=0.5;exitY=1;exitDx=0;exitDy=0;entryX=0.5;entryY=0;entryDx=0;entryDy=0;" parent="WIyWlLk6GJQsqaUBKTNV-1" source="DrqY0qf3_UpE_UGhZR60-55" target="DrqY0qf3_UpE_UGhZR60-59" edge="1">
          <mxGeometry relative="1" as="geometry">
            <Array as="points">
              <mxPoint x="149" y="1060" />
              <mxPoint x="299" y="1060" />
              <mxPoint x="299" y="700" />
              <mxPoint x="599" y="700" />
            </Array>
          </mxGeometry>
        </mxCell>
        <mxCell id="DrqY0qf3_UpE_UGhZR60-55" value="send_mail(&lt;div&gt;&#39;Registiration Veryficaiton code&#39;,&lt;/div&gt;&lt;div&gt;&lt;span style=&quot;background-color: initial;&quot;&gt;f&#39;your verification code is : {code}&#39;,&lt;/span&gt;&lt;/div&gt;&lt;div&gt;&lt;span style=&quot;background-color: initial;&quot;&gt;settings.DEAULT_FORM_EMAI,.[email],fall_silently=False)&lt;/span&gt;&lt;/div&gt;" style="whiteSpace=wrap;html=1;" parent="WIyWlLk6GJQsqaUBKTNV-1" vertex="1">
          <mxGeometry x="29" y="930" width="240" height="110" as="geometry" />
        </mxCell>
        <mxCell id="DrqY0qf3_UpE_UGhZR60-62" value="yes" style="edgeStyle=orthogonalEdgeStyle;rounded=0;orthogonalLoop=1;jettySize=auto;html=1;entryX=0.5;entryY=0;entryDx=0;entryDy=0;" parent="WIyWlLk6GJQsqaUBKTNV-1" source="DrqY0qf3_UpE_UGhZR60-59" target="DrqY0qf3_UpE_UGhZR60-61" edge="1">
          <mxGeometry relative="1" as="geometry" />
        </mxCell>
        <mxCell id="DrqY0qf3_UpE_UGhZR60-66" value="no" style="edgeStyle=orthogonalEdgeStyle;rounded=0;orthogonalLoop=1;jettySize=auto;html=1;entryX=0.5;entryY=0;entryDx=0;entryDy=0;" parent="WIyWlLk6GJQsqaUBKTNV-1" source="DrqY0qf3_UpE_UGhZR60-59" target="DrqY0qf3_UpE_UGhZR60-65" edge="1">
          <mxGeometry relative="1" as="geometry" />
        </mxCell>
        <mxCell id="DrqY0qf3_UpE_UGhZR60-59" value="if error&amp;nbsp;" style="rhombus;whiteSpace=wrap;html=1;" parent="WIyWlLk6GJQsqaUBKTNV-1" vertex="1">
          <mxGeometry x="559" y="720" width="80" height="70" as="geometry" />
        </mxCell>
        <mxCell id="DrqY0qf3_UpE_UGhZR60-64" value="" style="edgeStyle=orthogonalEdgeStyle;rounded=0;orthogonalLoop=1;jettySize=auto;html=1;" parent="WIyWlLk6GJQsqaUBKTNV-1" source="DrqY0qf3_UpE_UGhZR60-61" target="DrqY0qf3_UpE_UGhZR60-63" edge="1">
          <mxGeometry relative="1" as="geometry" />
        </mxCell>
        <mxCell id="DrqY0qf3_UpE_UGhZR60-61" value="messages.error(request,&quot;Failed to send verification email please try again&quot;)" style="whiteSpace=wrap;html=1;" parent="WIyWlLk6GJQsqaUBKTNV-1" vertex="1">
          <mxGeometry x="629" y="887.5" width="180" height="82.5" as="geometry" />
        </mxCell>
        <mxCell id="DrqY0qf3_UpE_UGhZR60-74" style="edgeStyle=orthogonalEdgeStyle;rounded=0;orthogonalLoop=1;jettySize=auto;html=1;exitX=0.5;exitY=1;exitDx=0;exitDy=0;entryX=0.5;entryY=0;entryDx=0;entryDy=0;" parent="WIyWlLk6GJQsqaUBKTNV-1" source="DrqY0qf3_UpE_UGhZR60-63" target="DrqY0qf3_UpE_UGhZR60-72" edge="1">
          <mxGeometry relative="1" as="geometry">
            <Array as="points">
              <mxPoint x="624" y="1070" />
              <mxPoint x="481" y="1070" />
              <mxPoint x="481" y="980" />
              <mxPoint x="393" y="980" />
            </Array>
          </mxGeometry>
        </mxCell>
        <mxCell id="DrqY0qf3_UpE_UGhZR60-63" value="render (request,&quot;accounts/register_email.html&quot;)" style="whiteSpace=wrap;html=1;" parent="WIyWlLk6GJQsqaUBKTNV-1" vertex="1">
          <mxGeometry x="509" y="1000" width="230" height="60" as="geometry" />
        </mxCell>
        <mxCell id="DrqY0qf3_UpE_UGhZR60-68" value="" style="edgeStyle=orthogonalEdgeStyle;rounded=0;orthogonalLoop=1;jettySize=auto;html=1;" parent="WIyWlLk6GJQsqaUBKTNV-1" source="DrqY0qf3_UpE_UGhZR60-65" target="DrqY0qf3_UpE_UGhZR60-67" edge="1">
          <mxGeometry relative="1" as="geometry" />
        </mxCell>
        <mxCell id="DrqY0qf3_UpE_UGhZR60-65" value="request.session[&#39;verification_email&#39;]&lt;div&gt;=&lt;/div&gt;&lt;div&gt;email&lt;/div&gt;" style="whiteSpace=wrap;html=1;" parent="WIyWlLk6GJQsqaUBKTNV-1" vertex="1">
          <mxGeometry x="309" y="780" width="200" height="70" as="geometry" />
        </mxCell>
        <mxCell id="DrqY0qf3_UpE_UGhZR60-73" style="edgeStyle=orthogonalEdgeStyle;rounded=0;orthogonalLoop=1;jettySize=auto;html=1;exitX=0.5;exitY=1;exitDx=0;exitDy=0;entryX=0.5;entryY=0;entryDx=0;entryDy=0;" parent="WIyWlLk6GJQsqaUBKTNV-1" source="DrqY0qf3_UpE_UGhZR60-67" target="DrqY0qf3_UpE_UGhZR60-72" edge="1">
          <mxGeometry relative="1" as="geometry" />
        </mxCell>
        <mxCell id="DrqY0qf3_UpE_UGhZR60-67" value="render&lt;div&gt;(request,&#39;acocounts/register_email.html&#39;)&lt;/div&gt;" style="whiteSpace=wrap;html=1;" parent="WIyWlLk6GJQsqaUBKTNV-1" vertex="1">
          <mxGeometry x="329" y="885" width="230" height="65" as="geometry" />
        </mxCell>
        <mxCell id="DrqY0qf3_UpE_UGhZR60-72" value="end" style="ellipse;whiteSpace=wrap;html=1;" parent="WIyWlLk6GJQsqaUBKTNV-1" vertex="1">
          <mxGeometry x="333" y="1010" width="120" height="80" as="geometry" />
        </mxCell>
        <mxCell id="tftde-_Lvce57QczOa0r-8" style="edgeStyle=orthogonalEdgeStyle;rounded=0;orthogonalLoop=1;jettySize=auto;html=1;entryX=0;entryY=0.5;entryDx=0;entryDy=0;" edge="1" parent="WIyWlLk6GJQsqaUBKTNV-1" source="tftde-_Lvce57QczOa0r-7" target="DrqY0qf3_UpE_UGhZR60-5">
          <mxGeometry relative="1" as="geometry" />
        </mxCell>
        <mxCell id="tftde-_Lvce57QczOa0r-7" value="render(&quot;accounts/register_email.html&quot;)" style="rounded=0;whiteSpace=wrap;html=1;" vertex="1" parent="WIyWlLk6GJQsqaUBKTNV-1">
          <mxGeometry x="369" y="180" width="221" height="50" as="geometry" />
        </mxCell>
      </root>
    </mxGraphModel>
  </diagram>
</mxfile>
